<?xml version="1.0" encoding="UTF-8" standalone="no"?>
<!-- Created with Inkscape (http://www.inkscape.org/) -->
<svg
   xmlns:dc="http://purl.org/dc/elements/1.1/"
   xmlns:cc="http://web.resource.org/cc/"
   xmlns:rdf="http://www.w3.org/1999/02/22-rdf-syntax-ns#"
   xmlns:svg="http://www.w3.org/2000/svg"
   xmlns="http://www.w3.org/2000/svg"
   xmlns:sodipodi="http://inkscape.sourceforge.net/DTD/sodipodi-0.dtd"
   xmlns:inkscape="http://www.inkscape.org/namespaces/inkscape"
   width="200"
   height="225"
   id="svg2"
   sodipodi:version="0.32"
   inkscape:version="0.43"
   version="1.0"
   sodipodi:docbase="C:\Documents and Settings\Julian\My Documents\My Pictures\Electronics\Vector Illustrations\ICs"
   sodipodi:docname="Pinout Template 16 Pin.svg">
  <defs
     id="defs4" />
  <sodipodi:namedview
     id="base"
     pagecolor="#ffffff"
     bordercolor="#666666"
     borderopacity="1.0"
     inkscape:pageopacity="0.0"
     inkscape:pageshadow="2"
     inkscape:zoom="1.926866"
     inkscape:cx="110.41983"
     inkscape:cy="101.76779"
     inkscape:document-units="px"
     inkscape:current-layer="layer1"
     showgrid="true"
     inkscape:grid-bbox="true"
     inkscape:grid-points="true"
     gridspacingx="5px"
     gridspacingy="5px"
     gridtolerance="5px"
     inkscape:window-width="1024"
     inkscape:window-height="712"
     inkscape:window-x="-4"
     inkscape:window-y="-4"
     showguides="true"
     inkscape:guide-bbox="true" />
  <metadata
     id="metadata7">
    <rdf:RDF>
      <cc:Work
         rdf:about="">
        <dc:format>image/svg+xml</dc:format>
        <dc:type
           rdf:resource="http://purl.org/dc/dcmitype/StillImage" />
      </cc:Work>
    </rdf:RDF>
  </metadata>
  <g
     inkscape:label="Layer 1"
     inkscape:groupmode="layer"
     id="layer1">
    <path
       style="fill:none;fill-opacity:0.75;fill-rule:evenodd;stroke:#000000;stroke-width:1.99999952;stroke-linecap:butt;stroke-linejoin:miter;stroke-miterlimit:4;stroke-opacity:1"
       d="M 50.052067,10.167137 L 149.99995,10.167137 L 149.99995,215 C 149.99995,215 50.052067,215 50.052067,215 L 50.052067,10.167137 z "
       id="path1349" />
    <path
       style="fill:none;fill-opacity:1;stroke:#000000;stroke-width:1;stroke-miterlimit:4;stroke-dashoffset:0;stroke-opacity:1"
       d="M 40,19.92856 L 50,19.92856 L 50,29.92856 L 40,29.92856 L 40,19.92856 z "
       id="rect2226" />
    <path
       style="fill:none;fill-opacity:1;stroke:#000000;stroke-width:1;stroke-miterlimit:4;stroke-dashoffset:0;stroke-opacity:1"
       d="M 40,44.928558 L 50,44.928558 L 50,54.928558 L 40,54.928558 L 40,44.928558 z "
       id="rect3101" />
    <path
       style="fill:none;fill-opacity:1;stroke:#000000;stroke-width:1;stroke-miterlimit:4;stroke-dashoffset:0;stroke-opacity:1"
       d="M 40,69.928558 L 50,69.928558 L 50,79.928558 L 40,79.928558 L 40,69.928558 z "
       id="rect3103" />
    <path
       style="fill:none;fill-opacity:1;stroke:#000000;stroke-width:1;stroke-miterlimit:4;stroke-dashoffset:0;stroke-opacity:1"
       d="M 40,94.928558 L 50,94.928558 L 50,104.92856 L 40,104.92856 L 40,94.928558 z "
       id="rect3105" />
    <path
       style="fill:none;fill-opacity:1;stroke:#000000;stroke-width:1;stroke-miterlimit:4;stroke-dashoffset:0;stroke-opacity:1"
       d="M 40,119.92856 L 50,119.92856 L 50,129.92856 L 40,129.92856 L 40,119.92856 z "
       id="rect3107" />
    <path
       style="fill:none;fill-opacity:1;stroke:#000000;stroke-width:1;stroke-miterlimit:4;stroke-dashoffset:0;stroke-opacity:1"
       d="M 40,144.92856 L 50,144.92856 L 50,154.92856 L 40,154.92856 L 40,144.92856 z "
       id="rect3109" />
    <path
       style="fill:none;fill-opacity:1;stroke:#000000;stroke-width:1;stroke-miterlimit:4;stroke-dashoffset:0;stroke-opacity:1"
       d="M 40,169.92856 L 50,169.92856 L 50,179.92856 L 40,179.92856 L 40,169.92856 z "
       id="rect3111" />
    <path
       style="fill:none;fill-opacity:1;stroke:#000000;stroke-width:1;stroke-miterlimit:4;stroke-dashoffset:0;stroke-opacity:1"
       d="M 150.5,19.92856 L 160.5,19.92856 L 160.5,29.92856 L 150.5,29.92856 L 150.5,19.92856 z "
       id="rect3113" />
    <path
       style="fill:none;fill-opacity:1;stroke:#000000;stroke-width:1;stroke-miterlimit:4;stroke-dashoffset:0;stroke-opacity:1"
       d="M 150.5,44.928558 L 160.5,44.928558 L 160.5,54.928558 L 150.5,54.928558 L 150.5,44.928558 z "
       id="rect3115" />
    <path
       style="fill:none;fill-opacity:1;stroke:#000000;stroke-width:1;stroke-miterlimit:4;stroke-dashoffset:0;stroke-opacity:1"
       d="M 150.5,69.928558 L 160.5,69.928558 L 160.5,79.928558 L 150.5,79.928558 L 150.5,69.928558 z "
       id="rect3117" />
    <path
       style="fill:none;fill-opacity:1;stroke:#000000;stroke-width:1;stroke-miterlimit:4;stroke-dashoffset:0;stroke-opacity:1"
       d="M 150.5,94.928558 L 160.5,94.928558 L 160.5,104.92856 L 150.5,104.92856 L 150.5,94.928558 z "
       id="rect3119" />
    <path
       style="fill:none;fill-opacity:1;stroke:#000000;stroke-width:1;stroke-miterlimit:4;stroke-dashoffset:0;stroke-opacity:1"
       d="M 150.5,119.92856 L 160.5,119.92856 L 160.5,129.92856 L 150.5,129.92856 L 150.5,119.92856 z "
       id="rect3121" />
    <path
       style="fill:none;fill-opacity:1;stroke:#000000;stroke-width:1;stroke-miterlimit:4;stroke-dashoffset:0;stroke-opacity:1"
       d="M 150.5,144.92856 L 160.5,144.92856 L 160.5,154.92856 L 150.5,154.92856 L 150.5,144.92856 z "
       id="rect3123" />
    <path
       style="fill:none;fill-opacity:1;stroke:#000000;stroke-width:1;stroke-miterlimit:4;stroke-dashoffset:0;stroke-opacity:1"
       d="M 150.5,169.92856 L 160.5,169.92856 L 160.5,179.92856 L 150.5,179.92856 L 150.5,169.92856 z "
       id="rect3125" />
    <path
       style="font-size:7.20000029px;font-style:normal;font-weight:normal;fill:#000000;fill-opacity:1;stroke:none;stroke-width:1px;stroke-linecap:butt;stroke-linejoin:miter;stroke-opacity:1;font-family:Bitstream Vera Sans"
       d="M 46.243707,27.056925 L 43.410114,27.056925 L 43.410114,26.52255 L 44.499957,26.52255 L 44.499957,23.013956 L 43.410114,23.013956 L 43.410114,22.535831 C 43.557769,22.535835 43.715972,22.524117 43.884723,22.500675 C 44.053471,22.474898 44.181206,22.43857 44.267926,22.39169 C 44.375737,22.333101 44.460112,22.259273 44.521051,22.170206 C 44.58433,22.078805 44.620658,21.95693 44.630035,21.804581 L 45.174957,21.804581 L 45.174957,26.52255 L 46.243707,26.52255 L 46.243707,27.056925"
       id="text4000" />
    <path
       style="font-size:7.20000029px;font-style:normal;font-weight:normal;fill:#000000;fill-opacity:1;stroke:none;stroke-width:1px;stroke-linecap:butt;stroke-linejoin:miter;stroke-opacity:1;font-family:Bitstream Vera Sans"
       d="M 46.598779,52.1726 L 43.055029,52.1726 L 43.055029,51.437834 C 43.301122,51.226898 43.547216,51.01596 43.793311,50.805022 C 44.041747,50.594086 44.272606,50.38432 44.485889,50.175725 C 44.935886,49.73979 45.244089,49.394087 45.410498,49.138615 C 45.576901,48.880806 45.660104,48.603072 45.660108,48.305412 C 45.660104,48.033541 45.56987,47.821432 45.389404,47.669084 C 45.211277,47.514401 44.961668,47.437057 44.640576,47.437053 C 44.427293,47.437057 44.196434,47.474557 43.947998,47.549553 C 43.699559,47.624557 43.456981,47.739401 43.220264,47.894084 L 43.185107,47.894084 L 43.185107,47.155803 C 43.351513,47.073777 43.572997,46.998777 43.849561,46.930803 C 44.128465,46.862839 44.397996,46.828855 44.658154,46.82885 C 45.19487,46.828855 45.615573,46.958933 45.920264,47.219084 C 46.224948,47.476901 46.377291,47.827291 46.377295,48.270256 C 46.377291,48.469478 46.35151,48.655806 46.299951,48.82924 C 46.250729,49.000337 46.176901,49.163228 46.078467,49.317912 C 45.987057,49.463227 45.879245,49.606196 45.755029,49.746818 C 45.633151,49.887446 45.484323,50.043305 45.308545,50.214397 C 45.057761,50.460492 44.798777,50.699554 44.531592,50.931584 C 44.264403,51.161273 44.014793,51.374554 43.782764,51.571428 L 46.598779,51.571428 L 46.598779,52.1726"
       id="text4004" />
    <path
       style="font-size:7.20000029px;font-style:normal;font-weight:normal;fill:#000000;fill-opacity:1;stroke:none;stroke-width:1px;stroke-linecap:butt;stroke-linejoin:miter;stroke-opacity:1;font-family:Bitstream Vera Sans"
       d="M 46.1646,74.667361 C 46.277096,74.768145 46.369674,74.894707 46.442334,75.047049 C 46.514986,75.199395 46.551314,75.396269 46.551319,75.637674 C 46.551314,75.876738 46.507955,76.095878 46.42124,76.295096 C 46.334518,76.494315 46.212643,76.667753 46.055615,76.815408 C 45.879831,76.979471 45.672409,77.101346 45.43335,77.181033 C 45.196628,77.258377 44.936472,77.297049 44.652881,77.297049 C 44.362254,77.297049 44.076317,77.261893 43.795068,77.19158 C 43.513817,77.123612 43.282958,77.048612 43.10249,76.96658 L 43.10249,76.231815 L 43.155225,76.231815 C 43.354443,76.363065 43.588817,76.47205 43.85835,76.558768 C 44.127879,76.645487 44.388035,76.688846 44.638818,76.688846 C 44.786472,76.688846 44.943504,76.664237 45.109912,76.615018 C 45.276316,76.5658 45.411081,76.493143 45.514209,76.397049 C 45.622019,76.293925 45.701706,76.180253 45.753272,76.056033 C 45.807175,75.931816 45.834128,75.774785 45.834131,75.58494 C 45.834128,75.397441 45.803659,75.242754 45.742725,75.120877 C 45.684128,74.99666 45.602097,74.899395 45.496631,74.82908 C 45.391159,74.756426 45.263425,74.707208 45.113428,74.681424 C 44.963425,74.653301 44.801707,74.639239 44.628272,74.639236 L 44.311865,74.639236 L 44.311865,74.055643 L 44.557959,74.055643 C 44.914207,74.055646 45.1978,73.981818 45.40874,73.834158 C 45.622019,73.684162 45.728659,73.466193 45.728662,73.180252 C 45.728659,73.053694 45.701706,72.943537 45.647803,72.849783 C 45.593894,72.753694 45.518894,72.675178 45.422803,72.614236 C 45.322019,72.553303 45.214206,72.511116 45.099365,72.487674 C 44.984519,72.464241 44.854441,72.452522 44.709131,72.452518 C 44.486473,72.452522 44.249754,72.492366 43.998975,72.572049 C 43.748192,72.651741 43.511474,72.764241 43.288818,72.909549 L 43.253662,72.909549 L 43.253662,72.174783 C 43.420067,72.092757 43.641552,72.017757 43.918115,71.949783 C 44.19702,71.879476 44.466551,71.84432 44.726709,71.844314 C 44.982175,71.84432 45.207175,71.867757 45.401709,71.914627 C 45.596237,71.961507 45.772018,72.036507 45.929053,72.139627 C 46.097799,72.252132 46.225534,72.388069 46.312256,72.547439 C 46.398971,72.706819 46.44233,72.893147 46.442334,73.106424 C 46.44233,73.397053 46.339205,73.651349 46.132959,73.869314 C 45.929049,74.084943 45.687643,74.22088 45.40874,74.277127 L 45.40874,74.326346 C 45.521237,74.345099 45.650143,74.384942 45.795459,74.445877 C 45.940768,74.504473 46.063815,74.578301 46.1646,74.667361"
       id="text4008" />
    <path
       style="font-size:7.20000029px;font-style:normal;font-weight:normal;fill:#000000;fill-opacity:1;stroke:none;stroke-width:1px;stroke-linecap:butt;stroke-linejoin:miter;stroke-opacity:1;font-family:Bitstream Vera Sans"
       d="M 46.806201,100.785 L 46.029248,100.785 L 46.029248,102.25805 L 45.354248,102.25805 L 45.354248,100.785 L 42.847607,100.785 L 42.847607,99.976408 L 45.382373,97.023283 L 46.029248,97.023283 L 46.029248,100.2225 L 46.806201,100.2225 L 46.806201,100.785 M 45.354248,100.2225 L 45.354248,97.860002 L 43.325732,100.2225 L 45.354248,100.2225"
       id="text4012" />
    <path
       style="font-size:7.20000029px;font-style:normal;font-weight:normal;fill:#000000;fill-opacity:1;stroke:none;stroke-width:1px;stroke-linecap:butt;stroke-linejoin:miter;stroke-opacity:1;font-family:Bitstream Vera Sans"
       d="M 46.53198,125.61061 C 46.531975,125.85436 46.487444,126.08756 46.398386,126.31022 C 46.309319,126.53287 46.187445,126.72037 46.032761,126.87272 C 45.864007,127.03678 45.662445,127.16334 45.428073,127.2524 C 45.196039,127.33912 44.926508,127.38248 44.619479,127.38248 C 44.33354,127.38248 44.05815,127.35201 43.793308,127.29108 C 43.528463,127.23248 43.304635,127.161 43.121823,127.07662 L 43.121823,126.33483 L 43.171042,126.33483 C 43.363229,126.4567 43.588228,126.561 43.846042,126.64772 C 44.103853,126.73209 44.356978,126.77428 44.605417,126.77428 C 44.771821,126.77428 44.932368,126.75084 45.087058,126.70397 C 45.244086,126.65709 45.383539,126.57506 45.505417,126.45787 C 45.608539,126.35709 45.685883,126.23639 45.737448,126.09576 C 45.791351,125.95514 45.818304,125.79225 45.818308,125.60709 C 45.818304,125.42663 45.786664,125.27428 45.723386,125.15006 C 45.662445,125.02584 45.576898,124.92624 45.466745,124.85123 C 45.344867,124.76217 45.196039,124.70006 45.020261,124.6649 C 44.846821,124.62741 44.65229,124.60866 44.436667,124.60865 C 44.230415,124.60866 44.031197,124.62272 43.839011,124.65084 C 43.649166,124.67897 43.485103,124.70709 43.346823,124.73522 L 43.346823,122.03873 L 46.496823,122.03873 L 46.496823,122.65397 L 44.025339,122.65397 L 44.025339,124.04615 C 44.126118,124.03678 44.229243,124.02975 44.334714,124.02506 C 44.440181,124.02038 44.531587,124.01803 44.608933,124.01803 C 44.892524,124.01803 45.140961,124.04264 45.354245,124.09186 C 45.567523,124.13874 45.763226,124.22311 45.941355,124.34498 C 46.128851,124.47389 46.274163,124.6403 46.377292,124.8442 C 46.480413,125.04811 46.531975,125.30358 46.53198,125.61061"
       id="text4016" />
    <path
       style="font-size:7.20000029px;font-style:normal;font-weight:normal;fill:#000000;fill-opacity:1;stroke:none;stroke-width:1px;stroke-linecap:butt;stroke-linejoin:miter;stroke-opacity:1;font-family:Bitstream Vera Sans"
       d="M 46.679648,150.69467 C 46.679644,151.2267 46.503863,151.66147 46.152304,151.99897 C 45.803082,152.33412 45.374176,152.5017 44.865585,152.5017 C 44.607771,152.5017 44.373396,152.46186 44.16246,152.38217 C 43.951521,152.30248 43.765193,152.18412 43.603476,152.02709 C 43.401913,151.83256 43.246053,151.57475 43.135898,151.25365 C 43.028085,150.93256 42.974179,150.54584 42.974179,150.0935 C 42.974179,149.62944 43.023397,149.21811 43.121835,148.85951 C 43.222616,148.50092 43.381991,148.18217 43.59996,147.90326 C 43.806209,147.63842 44.072224,147.43217 44.398007,147.28451 C 44.723786,147.13452 45.103473,147.05952 45.53707,147.05951 C 45.675348,147.05952 45.791363,147.06538 45.885117,147.07709 C 45.978863,147.08881 46.073785,147.10991 46.169882,147.14037 L 46.169882,147.81186 L 46.134726,147.81186 C 46.069098,147.7767 45.969488,147.74389 45.835898,147.71342 C 45.704645,147.68061 45.569879,147.6642 45.431601,147.6642 C 44.927692,147.6642 44.52574,147.82241 44.225742,148.13881 C 43.92574,148.45288 43.751131,148.87827 43.701914,149.41498 C 43.898787,149.29545 44.092146,149.20522 44.281992,149.14428 C 44.474177,149.081 44.695661,149.04936 44.946445,149.04936 C 45.169098,149.04936 45.364801,149.07045 45.533554,149.11264 C 45.704645,149.15248 45.879254,149.23452 46.057382,149.35873 C 46.263629,149.5017 46.418316,149.68217 46.521445,149.90014 C 46.626909,150.11811 46.679644,150.38295 46.679648,150.69467 M 45.965976,150.72279 C 45.965973,150.50483 45.93316,150.32436 45.867539,150.18139 C 45.804254,150.03842 45.698785,149.9142 45.551132,149.80873 C 45.443317,149.73373 45.323786,149.68451 45.192539,149.66107 C 45.061286,149.63764 44.924177,149.62592 44.78121,149.62592 C 44.58199,149.62592 44.396833,149.64936 44.225742,149.69623 C 44.054646,149.74311 43.878865,149.81576 43.698398,149.9142 C 43.693709,149.96576 43.690194,150.01616 43.687851,150.06537 C 43.685506,150.11225 43.684334,150.17201 43.684335,150.24467 C 43.684334,150.61498 43.721834,150.90795 43.796835,151.12357 C 43.874178,151.33686 43.979646,151.50561 44.113242,151.62982 C 44.221052,151.73295 44.337068,151.80912 44.461289,151.85834 C 44.587849,151.90522 44.724958,151.92865 44.872617,151.92865 C 45.212458,151.92865 45.479645,151.82553 45.674179,151.61928 C 45.868707,151.41069 45.965973,151.11186 45.965976,150.72279"
       id="text4020" />
    <path
       style="font-size:7.20000029px;font-style:normal;font-weight:normal;fill:#000000;fill-opacity:1;stroke:none;stroke-width:1px;stroke-linecap:butt;stroke-linejoin:miter;stroke-opacity:1;font-family:Bitstream Vera Sans"
       d="M 46.618122,173.01714 L 44.24859,177.46793 L 43.496246,177.46793 L 46.01695,172.84839 L 43.035699,172.84839 L 43.035699,172.23316 L 46.618122,172.23316 L 46.618122,173.01714"
       id="text4024" />
    <path
       style="font-size:7.19999981px;font-style:normal;font-weight:normal;fill:#000000;fill-opacity:1;stroke:none;stroke-width:1px;stroke-linecap:butt;stroke-linejoin:miter;stroke-opacity:1;font-family:Bitstream Vera Sans"
       d="M 46.517695,201.21965 C 46.517685,201.672 46.340735,202.04817 45.986835,202.34817 C 45.635265,202.64817 45.192295,202.79817 44.657925,202.79817 C 44.090735,202.79817 43.638395,202.65169 43.300895,202.35872 C 42.965735,202.06575 42.798165,201.69075 42.798165,201.23372 C 42.798165,200.94309 42.882535,200.68059 43.051285,200.44622 C 43.220035,200.2095 43.457925,200.022 43.764955,199.88372 L 43.764955,199.86262 C 43.483705,199.71263 43.275115,199.54856 43.139175,199.37044 C 43.005585,199.19231 42.938785,198.96966 42.938785,198.70247 C 42.938785,198.30872 43.100505,197.9806 43.423945,197.71809 C 43.747375,197.4556 44.158705,197.32435 44.657925,197.32434 C 45.180585,197.32435 45.597765,197.44974 45.909485,197.70051 C 46.221205,197.9513 46.377065,198.27005 46.377065,198.65676 C 46.377065,198.89349 46.303235,199.12669 46.155585,199.35637 C 46.007925,199.58372 45.791125,199.76184 45.505195,199.89075 L 45.505195,199.91184 C 45.833315,200.05247 46.084095,200.22591 46.257535,200.43215 C 46.430965,200.63841 46.517685,200.90091 46.517695,201.21965 M 45.684485,198.66379 C 45.684485,198.41302 45.587225,198.2138 45.392695,198.06614 C 45.200505,197.91614 44.954405,197.84114 44.654415,197.84114 C 44.359095,197.84114 44.116515,197.91146 43.926675,198.05208 C 43.739175,198.19271 43.645425,198.38255 43.645425,198.62161 C 43.645425,198.79036 43.692305,198.93685 43.786055,199.06106 C 43.882145,199.18294 44.026285,199.29192 44.218475,199.38801 C 44.305195,199.4302 44.429405,199.48528 44.591125,199.55325 C 44.755185,199.62122 44.914565,199.67747 45.069255,199.722 C 45.301285,199.56731 45.461825,199.40677 45.550895,199.24036 C 45.639955,199.07395 45.684485,198.88177 45.684485,198.66379 M 45.793475,201.28645 C 45.793475,201.07083 45.745425,200.89856 45.649335,200.76965 C 45.555575,200.63841 45.370425,200.50716 45.093865,200.3759 C 44.983705,200.32434 44.863005,200.2763 44.731755,200.23176 C 44.600505,200.18723 44.425895,200.12513 44.207925,200.04544 C 43.996985,200.16028 43.827065,200.31614 43.698165,200.51301 C 43.571595,200.70989 43.508315,200.93255 43.508315,201.18098 C 43.508315,201.49739 43.617305,201.75872 43.835275,201.96497 C 44.053235,202.17122 44.329795,202.27434 44.664955,202.27434 C 45.007145,202.27434 45.280185,202.18645 45.484095,202.01067 C 45.690345,201.83489 45.793475,201.59348 45.793475,201.28645"
       id="text4028" />
    <path
       style="font-size:7.19999981px;font-style:normal;font-weight:normal;fill:#000000;fill-opacity:1;stroke:none;stroke-width:1px;stroke-linecap:butt;stroke-linejoin:miter;stroke-opacity:1;font-family:Bitstream Vera Sans"
       d="M 157.50755,199.28802 C 157.50755,199.74505 157.45481,200.15989 157.34935,200.53255 C 157.24622,200.90521 157.08919,201.22278 156.87825,201.48528 C 156.66497,201.75247 156.39778,201.95872 156.07669,202.10403 C 155.75559,202.24935 155.37825,202.322 154.94466,202.322 C 154.82278,202.322 154.70794,202.31497 154.60013,202.30091 C 154.49231,202.28919 154.39622,202.26927 154.31185,202.24114 L 154.31185,201.56966 L 154.347,201.56966 C 154.41497,201.60481 154.51106,201.6388 154.63528,201.67161 C 154.7595,201.70208 154.89778,201.71731 155.05013,201.71731 C 155.56809,201.71731 155.97356,201.56263 156.26653,201.25325 C 156.56184,200.94153 156.73294,200.51263 156.77982,199.96653 C 156.56184,200.09779 156.35677,200.19154 156.16458,200.24778 C 155.97239,200.30403 155.76263,200.33216 155.53528,200.33216 C 155.31966,200.33216 155.12395,200.31107 154.94818,200.26888 C 154.77474,200.22669 154.60013,200.14466 154.42435,200.02278 C 154.2181,199.87982 154.06224,199.69818 153.95677,199.47786 C 153.85364,199.25755 153.80208,198.99388 153.80208,198.68685 C 153.80208,198.15247 153.97786,197.71771 154.32943,197.38255 C 154.68099,197.0474 155.10989,196.87982 155.61614,196.87981 C 155.86927,196.87982 156.10364,196.91966 156.31927,196.99935 C 156.53489,197.07669 156.72356,197.19388 156.88528,197.35091 C 157.0845,197.54544 157.23801,197.79623 157.34583,198.10325 C 157.45364,198.40794 157.50755,198.80286 157.50755,199.28802 M 156.79739,199.13685 C 156.79739,198.77357 156.75989,198.48177 156.68489,198.26145 C 156.60989,198.04115 156.50677,197.87005 156.37552,197.74817 C 156.26536,197.64271 156.147,197.56771 156.02044,197.52317 C 155.89388,197.4763 155.75677,197.45287 155.60911,197.45286 C 155.27161,197.45287 155.00442,197.55833 154.80755,197.76927 C 154.61302,197.98021 154.51575,198.27669 154.51575,198.65872 C 154.51575,198.88138 154.54739,199.06302 154.61068,199.20364 C 154.67395,199.34427 154.7806,199.46732 154.9306,199.57278 C 155.03606,199.64544 155.15208,199.69466 155.27864,199.72044 C 155.4052,199.74388 155.54583,199.7556 155.70052,199.7556 C 155.88333,199.7556 156.06848,199.73099 156.25599,199.68177 C 156.44348,199.63255 156.61927,199.56107 156.78333,199.46731 C 156.78567,199.4181 156.78802,199.37005 156.79036,199.32317 C 156.79505,199.27396 156.79739,199.21185 156.79739,199.13685"
       id="text4032" />
    <path
       style="font-size:7.19999981px;font-style:normal;font-weight:normal;fill:#000000;fill-opacity:1;stroke:none;stroke-width:1px;stroke-linecap:butt;stroke-linejoin:miter;stroke-opacity:1;font-family:Bitstream Vera Sans"
       d="M 154.63354,177.20099 L 151.79995,177.20099 L 151.79995,176.66662 L 152.88979,176.66662 L 152.88979,173.15802 L 151.79995,173.15802 L 151.79995,172.6799 C 151.9476,172.6799 152.1058,172.66818 152.27455,172.64474 C 152.4433,172.61896 152.57104,172.58264 152.65776,172.53576 C 152.76557,172.47717 152.84994,172.40334 152.91088,172.31427 C 152.97416,172.22287 153.01049,172.101 153.01987,171.94865 L 153.56479,171.94865 L 153.56479,176.66662 L 154.63354,176.66662 L 154.63354,177.20099 M 159.50971,174.58185 C 159.50971,175.5217 159.36205,176.21193 159.06674,176.65255 C 158.77377,177.09083 158.31791,177.30997 157.69916,177.30997 C 157.07104,177.30997 156.61166,177.08732 156.32104,176.64201 C 156.03276,176.19669 155.88862,175.51232 155.88862,174.58888 C 155.88862,173.65842 156.0351,172.9717 156.32807,172.52872 C 156.62104,172.08342 157.07807,171.86076 157.69916,171.86076 C 158.32729,171.86076 158.78549,172.08693 159.07377,172.53927 C 159.36439,172.98928 159.50971,173.67013 159.50971,174.58185 M 158.5851,176.17794 C 158.66713,175.9881 158.72221,175.76544 158.75034,175.50997 C 158.7808,175.25216 158.79604,174.94279 158.79604,174.58185 C 158.79604,174.2256 158.7808,173.91623 158.75034,173.65372 C 158.72221,173.39123 158.66596,173.16857 158.58159,172.98576 C 158.49955,172.80529 158.38705,172.66935 158.24409,172.57794 C 158.10346,172.48654 157.92182,172.44084 157.69916,172.44083 C 157.47885,172.44084 157.29604,172.48654 157.15073,172.57794 C 157.00776,172.66935 156.89408,172.80764 156.80971,172.99279 C 156.73002,173.16623 156.67494,173.3924 156.64448,173.6713 C 156.61635,173.95021 156.60229,174.25607 156.60229,174.58888 C 156.60229,174.95451 156.61518,175.26037 156.64096,175.50646 C 156.66674,175.75255 156.72182,175.97287 156.80619,176.1674 C 156.88354,176.35021 156.99252,176.48966 157.13315,176.58576 C 157.27611,176.68185 157.46479,176.7299 157.69916,176.7299 C 157.91947,176.7299 158.10229,176.68419 158.2476,176.59279 C 158.39291,176.50138 158.50541,176.3631 158.5851,176.17794"
       id="text4036" />
    <path
       style="font-size:7.19999981px;font-style:normal;font-weight:normal;fill:#000000;fill-opacity:1;stroke:none;stroke-width:1px;stroke-linecap:butt;stroke-linejoin:miter;stroke-opacity:1;font-family:Bitstream Vera Sans"
       d="M 154.77941,152.19594 L 151.94582,152.19594 L 151.94582,151.66156 L 153.03566,151.66156 L 153.03566,148.15297 L 151.94582,148.15297 L 151.94582,147.67484 C 152.09347,147.67485 152.25168,147.66313 152.42043,147.63969 C 152.58918,147.61391 152.71691,147.57758 152.80363,147.5307 C 152.91144,147.47211 152.99582,147.39828 153.05676,147.30922 C 153.12004,147.21782 153.15636,147.09594 153.16574,146.94359 L 153.71066,146.94359 L 153.71066,151.66156 L 154.77941,151.66156 L 154.77941,152.19594 M 159.36379,152.19594 L 156.53019,152.19594 L 156.53019,151.66156 L 157.62004,151.66156 L 157.62004,148.15297 L 156.53019,148.15297 L 156.53019,147.67484 C 156.67785,147.67485 156.83605,147.66313 157.0048,147.63969 C 157.17355,147.61391 157.30129,147.57758 157.38801,147.5307 C 157.49582,147.47211 157.58019,147.39828 157.64113,147.30922 C 157.70441,147.21782 157.74074,147.09594 157.75012,146.94359 L 158.29504,146.94359 L 158.29504,151.66156 L 159.36379,151.66156 L 159.36379,152.19594"
       id="text4040" />
    <path
       style="font-size:7.19999981px;font-style:normal;font-weight:normal;fill:#000000;fill-opacity:1;stroke:none;stroke-width:1px;stroke-linecap:butt;stroke-linejoin:miter;stroke-opacity:1;font-family:Bitstream Vera Sans"
       d="M 154.63,127.22609 L 151.79641,127.22609 L 151.79641,126.69171 L 152.88625,126.69171 L 152.88625,123.18312 L 151.79641,123.18312 L 151.79641,122.70499 C 151.94406,122.705 152.10226,122.69328 152.27101,122.66984 C 152.43976,122.64406 152.5675,122.60773 152.65422,122.56085 C 152.76203,122.50226 152.8464,122.42844 152.90734,122.33937 C 152.97062,122.24797 153.00695,122.12609 153.01633,121.97374 L 153.56125,121.97374 L 153.56125,126.69171 L 154.63,126.69171 L 154.63,127.22609 M 159.5132,127.22609 L 155.96945,127.22609 L 155.96945,126.49132 C 156.21554,126.28038 156.46164,126.06945 156.70773,125.85851 C 156.95617,125.64757 157.18703,125.43781 157.40031,125.22921 C 157.85031,124.79328 158.15851,124.44757 158.32492,124.1921 C 158.49132,123.93429 158.57453,123.65656 158.57453,123.3589 C 158.57453,123.08703 158.48429,122.87492 158.30383,122.72257 C 158.1257,122.56789 157.87609,122.49054 157.555,122.49054 C 157.34172,122.49054 157.11086,122.52804 156.86242,122.60304 C 156.61398,122.67804 156.3714,122.79289 156.13469,122.94757 L 156.09953,122.94757 L 156.09953,122.20929 C 156.26594,122.12726 156.48742,122.05226 156.76398,121.98429 C 157.04289,121.91633 157.31242,121.88234 157.57258,121.88234 C 158.10929,121.88234 158.53,122.01242 158.83469,122.27257 C 159.13937,122.53039 159.29171,122.88078 159.29172,123.32374 C 159.29171,123.52297 159.26593,123.70929 159.21437,123.88273 C 159.16515,124.05382 159.09132,124.21671 158.99289,124.3714 C 158.90148,124.51671 158.79367,124.65968 158.66945,124.80031 C 158.54757,124.94093 158.39875,125.09679 158.22297,125.26788 C 157.97218,125.51398 157.7132,125.75304 157.44601,125.98507 C 157.17882,126.21476 156.92922,126.42804 156.69719,126.62491 L 159.5132,126.62491 L 159.5132,127.22609"
       id="text4044" />
    <path
       style="font-size:7.19999981px;font-style:normal;font-weight:normal;fill:#000000;fill-opacity:1;stroke:none;stroke-width:1px;stroke-linecap:butt;stroke-linejoin:miter;stroke-opacity:1;font-family:Bitstream Vera Sans"
       d="M 154.66692,102.15605 L 151.83333,102.15605 L 151.83333,101.62167 L 152.92317,101.62167 L 152.92317,98.113081 L 151.83333,98.113081 L 151.83333,97.634956 C 151.98099,97.63496 152.13919,97.623241 152.30794,97.599799 C 152.47669,97.574023 152.60442,97.537695 152.69114,97.490815 C 152.79895,97.432226 152.88333,97.358398 152.94427,97.269331 C 153.00755,97.177929 153.04388,97.056054 153.05325,96.903706 L 153.59817,96.903706 L 153.59817,101.62167 L 154.66692,101.62167 L 154.66692,102.15605 M 159.08958,99.635346 C 159.20208,99.73613 159.29466,99.862692 159.36732,100.01503 C 159.43997,100.16738 159.4763,100.36425 159.4763,100.60566 C 159.4763,100.84472 159.43294,101.06386 159.34622,101.26308 C 159.2595,101.4623 159.13762,101.63574 158.9806,101.78339 C 158.80481,101.94746 158.59739,102.06933 158.35833,102.14902 C 158.12161,102.22636 157.86145,102.26503 157.57786,102.26503 C 157.28724,102.26503 157.0013,102.22988 156.72005,102.15956 C 156.4388,102.0916 156.20794,102.0166 156.02747,101.93456 L 156.02747,101.1998 L 156.08021,101.1998 C 156.27942,101.33105 156.5138,101.44003 156.78333,101.52675 C 157.05286,101.61347 157.31302,101.65683 157.5638,101.65683 C 157.71145,101.65683 157.86848,101.63222 158.03489,101.583 C 158.2013,101.53378 158.33606,101.46113 158.43919,101.36503 C 158.547,101.26191 158.62669,101.14824 158.67825,101.02402 C 158.73216,100.8998 158.75911,100.74277 158.75911,100.55292 C 158.75911,100.36543 158.72864,100.21074 158.66771,100.08886 C 158.60911,99.964645 158.52708,99.86738 158.42161,99.797065 C 158.31614,99.724411 158.18841,99.675192 158.03841,99.649409 C 157.88841,99.621286 157.72669,99.607224 157.55325,99.607221 L 157.23685,99.607221 L 157.23685,99.023627 L 157.48294,99.023627 C 157.83919,99.023631 158.12278,98.949803 158.33372,98.802143 C 158.547,98.652147 158.65364,98.434178 158.65364,98.148237 C 158.65364,98.021679 158.62669,97.911522 158.57278,97.817768 C 158.51887,97.721679 158.44387,97.643163 158.34778,97.582221 C 158.247,97.521288 158.13919,97.479101 158.02435,97.455659 C 157.9095,97.432226 157.77942,97.420507 157.63411,97.420503 C 157.41145,97.420507 157.17474,97.460351 156.92396,97.540034 C 156.67317,97.619726 156.43646,97.732226 156.2138,97.877534 L 156.17864,97.877534 L 156.17864,97.142768 C 156.34505,97.060742 156.56653,96.985742 156.8431,96.917768 C 157.122,96.847461 157.39153,96.812305 157.65169,96.812299 C 157.90716,96.812305 158.13216,96.835742 158.32669,96.882612 C 158.52122,96.929492 158.697,97.004492 158.85403,97.107612 C 159.02278,97.220117 159.15051,97.356054 159.23724,97.515424 C 159.32395,97.674804 159.36731,97.861132 159.36732,98.074409 C 159.36731,98.365038 159.26419,98.619334 159.05794,98.837299 C 158.85403,99.052927 158.61262,99.188865 158.33372,99.245112 L 158.33372,99.294331 C 158.44622,99.313083 158.57512,99.352927 158.72044,99.413862 C 158.86575,99.472458 158.9888,99.546286 159.08958,99.635346"
       id="text4048" />
    <path
       style="font-size:7.19999981px;font-style:normal;font-weight:normal;fill:#000000;fill-opacity:1;stroke:none;stroke-width:1px;stroke-linecap:butt;stroke-linejoin:miter;stroke-opacity:1;font-family:Bitstream Vera Sans"
       d="M 154.57025,77.149314 L 151.73665,77.149314 L 151.73665,76.614939 L 152.8265,76.614939 L 152.8265,73.106346 L 151.73665,73.106346 L 151.73665,72.628221 C 151.88431,72.628225 152.04251,72.616507 152.21126,72.593065 C 152.38001,72.567288 152.50774,72.53096 152.59446,72.48408 C 152.70227,72.425491 152.78665,72.351663 152.84759,72.262596 C 152.91087,72.171195 152.9472,72.04932 152.95657,71.896971 L 153.5015,71.896971 L 153.5015,76.614939 L 154.57025,76.614939 L 154.57025,77.149314 M 159.57298,75.676268 L 158.79603,75.676268 L 158.79603,77.149314 L 158.12103,77.149314 L 158.12103,75.676268 L 155.61439,75.676268 L 155.61439,74.867674 L 158.14915,71.914549 L 158.79603,71.914549 L 158.79603,75.113768 L 159.57298,75.113768 L 159.57298,75.676268 M 158.12103,75.113768 L 158.12103,72.751268 L 156.09251,75.113768 L 158.12103,75.113768"
       id="text4052" />
    <path
       style="fill:none;fill-opacity:1;stroke:#000000;stroke-width:1;stroke-miterlimit:4;stroke-dashoffset:0;stroke-opacity:1"
       d="M 40,195 L 50,195 L 50,205 L 40,205 L 40,195 z "
       id="path5995" />
    <path
       style="fill:none;fill-opacity:1;stroke:#000000;stroke-width:1;stroke-miterlimit:4;stroke-dashoffset:0;stroke-opacity:1"
       d="M 150.5,195.5 L 160.5,195.5 L 160.5,205.5 L 150.5,205.5 L 150.5,195.5 z "
       id="path5999" />
    <path
       style="font-size:7.19999981px;font-style:normal;font-weight:normal;fill:#000000;fill-opacity:1;stroke:none;stroke-width:1px;stroke-linecap:butt;stroke-linejoin:miter;stroke-opacity:1;font-family:Bitstream Vera Sans"
       d="M 154.75721,52.423573 L 151.92362,52.423573 L 151.92362,51.889198 L 153.01346,51.889198 L 153.01346,48.380604 L 151.92362,48.380604 L 151.92362,47.902479 C 152.07127,47.902483 152.22948,47.890765 152.39823,47.867323 C 152.56698,47.841546 152.69471,47.805218 152.78143,47.758338 C 152.88924,47.699749 152.97362,47.625921 153.03455,47.536854 C 153.09783,47.445453 153.13416,47.323578 153.14354,47.171229 L 153.68846,47.171229 L 153.68846,51.889198 L 154.75721,51.889198 L 154.75721,52.423573 M 159.59823,50.760682 C 159.59822,51.004433 159.55369,51.237636 159.46463,51.460291 C 159.37557,51.682948 159.25369,51.870448 159.09901,52.022791 C 158.93025,52.186854 158.72869,52.313416 158.49432,52.402479 C 158.26229,52.489197 157.99276,52.532557 157.68573,52.532557 C 157.39979,52.532557 157.1244,52.502088 156.85955,52.441151 C 156.59471,52.382557 156.37088,52.311073 156.18807,52.226698 L 156.18807,51.484901 L 156.23729,51.484901 C 156.42948,51.606777 156.65448,51.711073 156.91229,51.797791 C 157.1701,51.882167 157.42322,51.924354 157.67166,51.924354 C 157.83807,51.924354 157.99861,51.900917 158.1533,51.854041 C 158.31033,51.807167 158.44979,51.725136 158.57166,51.607948 C 158.67479,51.507167 158.75213,51.386464 158.8037,51.245838 C 158.8576,51.105215 158.88455,50.942324 158.88455,50.757166 C 158.88455,50.576699 158.85291,50.424356 158.78963,50.300135 C 158.72869,50.175919 158.64315,50.076309 158.53299,50.001307 C 158.41111,49.912247 158.26229,49.850138 158.08651,49.814979 C 157.91307,49.777482 157.71854,49.758732 157.50291,49.758729 C 157.29666,49.758732 157.09744,49.772794 156.90526,49.800916 C 156.71541,49.829044 156.55135,49.857169 156.41307,49.885291 L 156.41307,47.188807 L 159.56307,47.188807 L 159.56307,47.804041 L 157.09159,47.804041 L 157.09159,49.196229 C 157.19237,49.186857 157.29549,49.179826 157.40096,49.175135 C 157.50643,49.170451 157.59783,49.168107 157.67518,49.168104 C 157.95877,49.168107 158.20721,49.192716 158.42049,49.241932 C 158.63377,49.28881 158.82947,49.373185 159.0076,49.495057 C 159.1951,49.623966 159.34041,49.790372 159.44354,49.994276 C 159.54666,50.198184 159.59822,50.453653 159.59823,50.760682"
       id="text6003" />
    <path
       style="font-size:7.19999981px;font-style:normal;font-weight:normal;fill:#000000;fill-opacity:1;stroke:none;stroke-width:1px;stroke-linecap:butt;stroke-linejoin:miter;stroke-opacity:1;font-family:Bitstream Vera Sans"
       d="M 154.60153,26.993679 L 151.76793,26.993679 L 151.76793,26.459304 L 152.85778,26.459304 L 152.85778,22.95071 L 151.76793,22.95071 L 151.76793,22.472585 C 151.91559,22.47259 152.07379,22.460871 152.24254,22.437429 C 152.41129,22.411653 152.53902,22.375324 152.62574,22.328445 C 152.73356,22.269856 152.81793,22.196028 152.87887,22.10696 C 152.94215,22.015559 152.97848,21.893684 152.98785,21.741335 L 153.53278,21.741335 L 153.53278,26.459304 L 154.60153,26.459304 L 154.60153,26.993679 M 159.56207,25.295632 C 159.56207,25.827665 159.38629,26.26243 159.03473,26.599929 C 158.68551,26.935085 158.2566,27.102663 157.74801,27.102663 C 157.4902,27.102663 157.25582,27.06282 157.04489,26.983132 C 156.83395,26.903445 156.64762,26.785086 156.4859,26.628054 C 156.28434,26.433523 156.12848,26.175711 156.01832,25.854617 C 155.91051,25.533524 155.8566,25.146806 155.8566,24.69446 C 155.8566,24.230401 155.90582,23.819073 156.00426,23.460476 C 156.10504,23.101886 156.26442,22.783136 156.48239,22.504226 C 156.68863,22.239387 156.95465,22.033137 157.28043,21.885476 C 157.60621,21.735481 157.9859,21.660481 158.41949,21.660476 C 158.55777,21.660481 158.67379,21.666341 158.76754,21.678054 C 158.86129,21.689778 158.95621,21.710872 159.05231,21.741335 L 159.05231,22.41282 L 159.01715,22.41282 C 158.95152,22.377668 158.85191,22.344856 158.71832,22.314382 C 158.58707,22.281575 158.4523,22.265168 158.31403,22.265164 C 157.81012,22.265168 157.40816,22.423371 157.10817,22.739773 C 156.80816,23.053839 156.63356,23.47923 156.58434,24.015945 C 156.78121,23.896417 156.97457,23.806182 157.16442,23.745242 C 157.3566,23.681964 157.57809,23.650323 157.82887,23.65032 C 158.05152,23.650323 158.24723,23.671417 158.41598,23.713601 C 158.58707,23.753448 158.76168,23.835479 158.93981,23.959695 C 159.14605,24.102666 159.30074,24.283135 159.40387,24.501101 C 159.50933,24.719072 159.56207,24.983915 159.56207,25.295632 M 158.8484,25.323757 C 158.8484,25.10579 158.81558,24.925322 158.74996,24.782351 C 158.68668,24.639385 158.58121,24.515166 158.43356,24.409695 C 158.32574,24.334697 158.20621,24.285479 158.07496,24.262038 C 157.94371,24.238604 157.8066,24.226885 157.66364,24.226882 C 157.46441,24.226885 157.27926,24.250322 157.10817,24.297195 C 156.93707,24.344072 156.76129,24.416729 156.58082,24.515163 C 156.57613,24.566728 156.57262,24.617119 156.57028,24.666335 C 156.56793,24.713213 156.56676,24.772978 156.56676,24.845632 C 156.56676,25.215946 156.60426,25.508915 156.67926,25.724538 C 156.7566,25.937821 156.86207,26.106571 156.99567,26.230788 C 157.10348,26.333914 157.21949,26.410086 157.34371,26.459304 C 157.47027,26.50618 157.60738,26.529617 157.75504,26.529617 C 158.09488,26.529617 158.36207,26.426492 158.5566,26.220242 C 158.75113,26.011649 158.8484,25.712821 158.8484,25.323757"
       id="text6007" />
    <path
       style="fill:none;fill-opacity:0.75;fill-rule:evenodd;stroke:#000000;stroke-width:1px;stroke-linecap:butt;stroke-linejoin:miter;stroke-opacity:1"
       d="M 90,10 L 90,15 C 90,15 90,25 100,25 C 110,25 110,15 110,15 L 110,10 L 90,10"
       id="path6269" />
  </g>
</svg>
