<?xml version="1.0" encoding="UTF-8" standalone="no"?>
<!-- Created with Inkscape (http://www.inkscape.org/) -->
<svg
   xmlns:dc="http://purl.org/dc/elements/1.1/"
   xmlns:cc="http://web.resource.org/cc/"
   xmlns:rdf="http://www.w3.org/1999/02/22-rdf-syntax-ns#"
   xmlns:svg="http://www.w3.org/2000/svg"
   xmlns="http://www.w3.org/2000/svg"
   xmlns:sodipodi="http://inkscape.sourceforge.net/DTD/sodipodi-0.dtd"
   xmlns:inkscape="http://www.inkscape.org/namespaces/inkscape"
   width="200"
   height="250"
   id="svg2"
   sodipodi:version="0.32"
   inkscape:version="0.43"
   version="1.0"
   sodipodi:docbase="C:\Documents and Settings\Julian\My Documents\My Pictures\Electronics\Vector Illustrations\ICs"
   sodipodi:docname="Pinout Template 18  Pin.svg">
  <defs
     id="defs4" />
  <sodipodi:namedview
     id="base"
     pagecolor="#ffffff"
     bordercolor="#666666"
     borderopacity="1.0"
     inkscape:pageopacity="0.0"
     inkscape:pageshadow="2"
     inkscape:zoom="0.96343299"
     inkscape:cx="276.02954"
     inkscape:cy="130.69486"
     inkscape:document-units="px"
     inkscape:current-layer="layer1"
     showgrid="true"
     inkscape:grid-bbox="true"
     inkscape:grid-points="true"
     gridspacingx="5px"
     gridspacingy="5px"
     gridtolerance="5px"
     inkscape:window-width="1024"
     inkscape:window-height="712"
     inkscape:window-x="-4"
     inkscape:window-y="-4"
     showguides="true"
     inkscape:guide-bbox="true" />
  <metadata
     id="metadata7">
    <rdf:RDF>
      <cc:Work
         rdf:about="">
        <dc:format>image/svg+xml</dc:format>
        <dc:type
           rdf:resource="http://purl.org/dc/dcmitype/StillImage" />
      </cc:Work>
    </rdf:RDF>
  </metadata>
  <g
     inkscape:label="Layer 1"
     inkscape:groupmode="layer"
     id="layer1">
    <path
       style="fill:none;fill-opacity:0.75;fill-rule:evenodd;stroke:#000000;stroke-width:1.99999964;stroke-linecap:butt;stroke-linejoin:miter;stroke-miterlimit:4;stroke-opacity:1"
       d="M 50.052067,10.288597 L 149.99995,10.288597 L 149.99995,240.00005 C 149.99995,240.00005 50.052067,240.00005 50.052067,240.00005 L 50.052067,10.288597 z "
       id="path1349" />
    <path
       style="fill:none;fill-opacity:1;stroke:#000000;stroke-width:1;stroke-miterlimit:4;stroke-dashoffset:0;stroke-opacity:1"
       d="M 40,19.92856 L 50,19.92856 L 50,29.92856 L 40,29.92856 L 40,19.92856 z "
       id="rect2226" />
    <path
       style="fill:none;fill-opacity:1;stroke:#000000;stroke-width:1;stroke-miterlimit:4;stroke-dashoffset:0;stroke-opacity:1"
       d="M 40,44.928558 L 50,44.928558 L 50,54.928558 L 40,54.928558 L 40,44.928558 z "
       id="rect3101" />
    <path
       style="fill:none;fill-opacity:1;stroke:#000000;stroke-width:1;stroke-miterlimit:4;stroke-dashoffset:0;stroke-opacity:1"
       d="M 40,69.928558 L 50,69.928558 L 50,79.928558 L 40,79.928558 L 40,69.928558 z "
       id="rect3103" />
    <path
       style="fill:none;fill-opacity:1;stroke:#000000;stroke-width:1;stroke-miterlimit:4;stroke-dashoffset:0;stroke-opacity:1"
       d="M 40,94.928558 L 50,94.928558 L 50,104.92856 L 40,104.92856 L 40,94.928558 z "
       id="rect3105" />
    <path
       style="fill:none;fill-opacity:1;stroke:#000000;stroke-width:1;stroke-miterlimit:4;stroke-dashoffset:0;stroke-opacity:1"
       d="M 40,119.92856 L 50,119.92856 L 50,129.92856 L 40,129.92856 L 40,119.92856 z "
       id="rect3107" />
    <path
       style="fill:none;fill-opacity:1;stroke:#000000;stroke-width:1;stroke-miterlimit:4;stroke-dashoffset:0;stroke-opacity:1"
       d="M 40,144.92856 L 50,144.92856 L 50,154.92856 L 40,154.92856 L 40,144.92856 z "
       id="rect3109" />
    <path
       style="fill:none;fill-opacity:1;stroke:#000000;stroke-width:1;stroke-miterlimit:4;stroke-dashoffset:0;stroke-opacity:1"
       d="M 40,169.92856 L 50,169.92856 L 50,179.92856 L 40,179.92856 L 40,169.92856 z "
       id="rect3111" />
    <path
       style="fill:none;fill-opacity:1;stroke:#000000;stroke-width:1;stroke-miterlimit:4;stroke-dashoffset:0;stroke-opacity:1"
       d="M 150,70.000002 L 160,70.000002 L 160,80.000002 L 150,80.000002 L 150,70.000002 z "
       id="rect3113" />
    <path
       style="fill:none;fill-opacity:1;stroke:#000000;stroke-width:1;stroke-miterlimit:4;stroke-dashoffset:0;stroke-opacity:1"
       d="M 150,95 L 160,95 L 160,105 L 150,105 L 150,95 z "
       id="rect3115" />
    <path
       style="fill:none;fill-opacity:1;stroke:#000000;stroke-width:1;stroke-miterlimit:4;stroke-dashoffset:0;stroke-opacity:1"
       d="M 150,120 L 160,120 L 160,130 L 150,130 L 150,120 z "
       id="rect3117" />
    <path
       style="fill:none;fill-opacity:1;stroke:#000000;stroke-width:1;stroke-miterlimit:4;stroke-dashoffset:0;stroke-opacity:1"
       d="M 150,145 L 160,145 L 160,155 L 150,155 L 150,145 z "
       id="rect3119" />
    <path
       style="fill:none;fill-opacity:1;stroke:#000000;stroke-width:1;stroke-miterlimit:4;stroke-dashoffset:0;stroke-opacity:1"
       d="M 150,170 L 160,170 L 160,180 L 150,180 L 150,170 z "
       id="rect3121" />
    <path
       style="fill:none;fill-opacity:1;stroke:#000000;stroke-width:1;stroke-miterlimit:4;stroke-dashoffset:0;stroke-opacity:1"
       d="M 150,195 L 160,195 L 160,205 L 150,205 L 150,195 z "
       id="rect3123" />
    <path
       style="fill:none;fill-opacity:1;stroke:#000000;stroke-width:1;stroke-miterlimit:4;stroke-dashoffset:0;stroke-opacity:1"
       d="M 150,220 L 160,220 L 160,230 L 150,230 L 150,220 z "
       id="rect3125" />
    <path
       style="font-size:7.20000029px;font-style:normal;font-weight:normal;fill:#000000;fill-opacity:1;stroke:none;stroke-width:1px;stroke-linecap:butt;stroke-linejoin:miter;stroke-opacity:1;font-family:Bitstream Vera Sans"
       d="M 46.243707,27.056925 L 43.410114,27.056925 L 43.410114,26.52255 L 44.499957,26.52255 L 44.499957,23.013956 L 43.410114,23.013956 L 43.410114,22.535831 C 43.557769,22.535835 43.715972,22.524117 43.884723,22.500675 C 44.053471,22.474898 44.181206,22.43857 44.267926,22.39169 C 44.375737,22.333101 44.460112,22.259273 44.521051,22.170206 C 44.58433,22.078805 44.620658,21.95693 44.630035,21.804581 L 45.174957,21.804581 L 45.174957,26.52255 L 46.243707,26.52255 L 46.243707,27.056925"
       id="text4000" />
    <path
       style="font-size:7.20000029px;font-style:normal;font-weight:normal;fill:#000000;fill-opacity:1;stroke:none;stroke-width:1px;stroke-linecap:butt;stroke-linejoin:miter;stroke-opacity:1;font-family:Bitstream Vera Sans"
       d="M 46.598779,52.1726 L 43.055029,52.1726 L 43.055029,51.437834 C 43.301122,51.226898 43.547216,51.01596 43.793311,50.805022 C 44.041747,50.594086 44.272606,50.38432 44.485889,50.175725 C 44.935886,49.73979 45.244089,49.394087 45.410498,49.138615 C 45.576901,48.880806 45.660104,48.603072 45.660108,48.305412 C 45.660104,48.033541 45.56987,47.821432 45.389404,47.669084 C 45.211277,47.514401 44.961668,47.437057 44.640576,47.437053 C 44.427293,47.437057 44.196434,47.474557 43.947998,47.549553 C 43.699559,47.624557 43.456981,47.739401 43.220264,47.894084 L 43.185107,47.894084 L 43.185107,47.155803 C 43.351513,47.073777 43.572997,46.998777 43.849561,46.930803 C 44.128465,46.862839 44.397996,46.828855 44.658154,46.82885 C 45.19487,46.828855 45.615573,46.958933 45.920264,47.219084 C 46.224948,47.476901 46.377291,47.827291 46.377295,48.270256 C 46.377291,48.469478 46.35151,48.655806 46.299951,48.82924 C 46.250729,49.000337 46.176901,49.163228 46.078467,49.317912 C 45.987057,49.463227 45.879245,49.606196 45.755029,49.746818 C 45.633151,49.887446 45.484323,50.043305 45.308545,50.214397 C 45.057761,50.460492 44.798777,50.699554 44.531592,50.931584 C 44.264403,51.161273 44.014793,51.374554 43.782764,51.571428 L 46.598779,51.571428 L 46.598779,52.1726"
       id="text4004" />
    <path
       style="font-size:7.20000029px;font-style:normal;font-weight:normal;fill:#000000;fill-opacity:1;stroke:none;stroke-width:1px;stroke-linecap:butt;stroke-linejoin:miter;stroke-opacity:1;font-family:Bitstream Vera Sans"
       d="M 46.1646,74.667361 C 46.277096,74.768145 46.369674,74.894707 46.442334,75.047049 C 46.514986,75.199395 46.551314,75.396269 46.551319,75.637674 C 46.551314,75.876738 46.507955,76.095878 46.42124,76.295096 C 46.334518,76.494315 46.212643,76.667753 46.055615,76.815408 C 45.879831,76.979471 45.672409,77.101346 45.43335,77.181033 C 45.196628,77.258377 44.936472,77.297049 44.652881,77.297049 C 44.362254,77.297049 44.076317,77.261893 43.795068,77.19158 C 43.513817,77.123612 43.282958,77.048612 43.10249,76.96658 L 43.10249,76.231815 L 43.155225,76.231815 C 43.354443,76.363065 43.588817,76.47205 43.85835,76.558768 C 44.127879,76.645487 44.388035,76.688846 44.638818,76.688846 C 44.786472,76.688846 44.943504,76.664237 45.109912,76.615018 C 45.276316,76.5658 45.411081,76.493143 45.514209,76.397049 C 45.622019,76.293925 45.701706,76.180253 45.753272,76.056033 C 45.807175,75.931816 45.834128,75.774785 45.834131,75.58494 C 45.834128,75.397441 45.803659,75.242754 45.742725,75.120877 C 45.684128,74.99666 45.602097,74.899395 45.496631,74.82908 C 45.391159,74.756426 45.263425,74.707208 45.113428,74.681424 C 44.963425,74.653301 44.801707,74.639239 44.628272,74.639236 L 44.311865,74.639236 L 44.311865,74.055643 L 44.557959,74.055643 C 44.914207,74.055646 45.1978,73.981818 45.40874,73.834158 C 45.622019,73.684162 45.728659,73.466193 45.728662,73.180252 C 45.728659,73.053694 45.701706,72.943537 45.647803,72.849783 C 45.593894,72.753694 45.518894,72.675178 45.422803,72.614236 C 45.322019,72.553303 45.214206,72.511116 45.099365,72.487674 C 44.984519,72.464241 44.854441,72.452522 44.709131,72.452518 C 44.486473,72.452522 44.249754,72.492366 43.998975,72.572049 C 43.748192,72.651741 43.511474,72.764241 43.288818,72.909549 L 43.253662,72.909549 L 43.253662,72.174783 C 43.420067,72.092757 43.641552,72.017757 43.918115,71.949783 C 44.19702,71.879476 44.466551,71.84432 44.726709,71.844314 C 44.982175,71.84432 45.207175,71.867757 45.401709,71.914627 C 45.596237,71.961507 45.772018,72.036507 45.929053,72.139627 C 46.097799,72.252132 46.225534,72.388069 46.312256,72.547439 C 46.398971,72.706819 46.44233,72.893147 46.442334,73.106424 C 46.44233,73.397053 46.339205,73.651349 46.132959,73.869314 C 45.929049,74.084943 45.687643,74.22088 45.40874,74.277127 L 45.40874,74.326346 C 45.521237,74.345099 45.650143,74.384942 45.795459,74.445877 C 45.940768,74.504473 46.063815,74.578301 46.1646,74.667361"
       id="text4008" />
    <path
       style="font-size:7.20000029px;font-style:normal;font-weight:normal;fill:#000000;fill-opacity:1;stroke:none;stroke-width:1px;stroke-linecap:butt;stroke-linejoin:miter;stroke-opacity:1;font-family:Bitstream Vera Sans"
       d="M 46.806201,100.785 L 46.029248,100.785 L 46.029248,102.25805 L 45.354248,102.25805 L 45.354248,100.785 L 42.847607,100.785 L 42.847607,99.976408 L 45.382373,97.023283 L 46.029248,97.023283 L 46.029248,100.2225 L 46.806201,100.2225 L 46.806201,100.785 M 45.354248,100.2225 L 45.354248,97.860002 L 43.325732,100.2225 L 45.354248,100.2225"
       id="text4012" />
    <path
       style="font-size:7.20000029px;font-style:normal;font-weight:normal;fill:#000000;fill-opacity:1;stroke:none;stroke-width:1px;stroke-linecap:butt;stroke-linejoin:miter;stroke-opacity:1;font-family:Bitstream Vera Sans"
       d="M 46.53198,125.61061 C 46.531975,125.85436 46.487444,126.08756 46.398386,126.31022 C 46.309319,126.53287 46.187445,126.72037 46.032761,126.87272 C 45.864007,127.03678 45.662445,127.16334 45.428073,127.2524 C 45.196039,127.33912 44.926508,127.38248 44.619479,127.38248 C 44.33354,127.38248 44.05815,127.35201 43.793308,127.29108 C 43.528463,127.23248 43.304635,127.161 43.121823,127.07662 L 43.121823,126.33483 L 43.171042,126.33483 C 43.363229,126.4567 43.588228,126.561 43.846042,126.64772 C 44.103853,126.73209 44.356978,126.77428 44.605417,126.77428 C 44.771821,126.77428 44.932368,126.75084 45.087058,126.70397 C 45.244086,126.65709 45.383539,126.57506 45.505417,126.45787 C 45.608539,126.35709 45.685883,126.23639 45.737448,126.09576 C 45.791351,125.95514 45.818304,125.79225 45.818308,125.60709 C 45.818304,125.42663 45.786664,125.27428 45.723386,125.15006 C 45.662445,125.02584 45.576898,124.92624 45.466745,124.85123 C 45.344867,124.76217 45.196039,124.70006 45.020261,124.6649 C 44.846821,124.62741 44.65229,124.60866 44.436667,124.60865 C 44.230415,124.60866 44.031197,124.62272 43.839011,124.65084 C 43.649166,124.67897 43.485103,124.70709 43.346823,124.73522 L 43.346823,122.03873 L 46.496823,122.03873 L 46.496823,122.65397 L 44.025339,122.65397 L 44.025339,124.04615 C 44.126118,124.03678 44.229243,124.02975 44.334714,124.02506 C 44.440181,124.02038 44.531587,124.01803 44.608933,124.01803 C 44.892524,124.01803 45.140961,124.04264 45.354245,124.09186 C 45.567523,124.13874 45.763226,124.22311 45.941355,124.34498 C 46.128851,124.47389 46.274163,124.6403 46.377292,124.8442 C 46.480413,125.04811 46.531975,125.30358 46.53198,125.61061"
       id="text4016" />
    <path
       style="font-size:7.20000029px;font-style:normal;font-weight:normal;fill:#000000;fill-opacity:1;stroke:none;stroke-width:1px;stroke-linecap:butt;stroke-linejoin:miter;stroke-opacity:1;font-family:Bitstream Vera Sans"
       d="M 46.679648,150.69467 C 46.679644,151.2267 46.503863,151.66147 46.152304,151.99897 C 45.803082,152.33412 45.374176,152.5017 44.865585,152.5017 C 44.607771,152.5017 44.373396,152.46186 44.16246,152.38217 C 43.951521,152.30248 43.765193,152.18412 43.603476,152.02709 C 43.401913,151.83256 43.246053,151.57475 43.135898,151.25365 C 43.028085,150.93256 42.974179,150.54584 42.974179,150.0935 C 42.974179,149.62944 43.023397,149.21811 43.121835,148.85951 C 43.222616,148.50092 43.381991,148.18217 43.59996,147.90326 C 43.806209,147.63842 44.072224,147.43217 44.398007,147.28451 C 44.723786,147.13452 45.103473,147.05952 45.53707,147.05951 C 45.675348,147.05952 45.791363,147.06538 45.885117,147.07709 C 45.978863,147.08881 46.073785,147.10991 46.169882,147.14037 L 46.169882,147.81186 L 46.134726,147.81186 C 46.069098,147.7767 45.969488,147.74389 45.835898,147.71342 C 45.704645,147.68061 45.569879,147.6642 45.431601,147.6642 C 44.927692,147.6642 44.52574,147.82241 44.225742,148.13881 C 43.92574,148.45288 43.751131,148.87827 43.701914,149.41498 C 43.898787,149.29545 44.092146,149.20522 44.281992,149.14428 C 44.474177,149.081 44.695661,149.04936 44.946445,149.04936 C 45.169098,149.04936 45.364801,149.07045 45.533554,149.11264 C 45.704645,149.15248 45.879254,149.23452 46.057382,149.35873 C 46.263629,149.5017 46.418316,149.68217 46.521445,149.90014 C 46.626909,150.11811 46.679644,150.38295 46.679648,150.69467 M 45.965976,150.72279 C 45.965973,150.50483 45.93316,150.32436 45.867539,150.18139 C 45.804254,150.03842 45.698785,149.9142 45.551132,149.80873 C 45.443317,149.73373 45.323786,149.68451 45.192539,149.66107 C 45.061286,149.63764 44.924177,149.62592 44.78121,149.62592 C 44.58199,149.62592 44.396833,149.64936 44.225742,149.69623 C 44.054646,149.74311 43.878865,149.81576 43.698398,149.9142 C 43.693709,149.96576 43.690194,150.01616 43.687851,150.06537 C 43.685506,150.11225 43.684334,150.17201 43.684335,150.24467 C 43.684334,150.61498 43.721834,150.90795 43.796835,151.12357 C 43.874178,151.33686 43.979646,151.50561 44.113242,151.62982 C 44.221052,151.73295 44.337068,151.80912 44.461289,151.85834 C 44.587849,151.90522 44.724958,151.92865 44.872617,151.92865 C 45.212458,151.92865 45.479645,151.82553 45.674179,151.61928 C 45.868707,151.41069 45.965973,151.11186 45.965976,150.72279"
       id="text4020" />
    <path
       style="font-size:7.20000029px;font-style:normal;font-weight:normal;fill:#000000;fill-opacity:1;stroke:none;stroke-width:1px;stroke-linecap:butt;stroke-linejoin:miter;stroke-opacity:1;font-family:Bitstream Vera Sans"
       d="M 46.618122,173.01714 L 44.24859,177.46793 L 43.496246,177.46793 L 46.01695,172.84839 L 43.035699,172.84839 L 43.035699,172.23316 L 46.618122,172.23316 L 46.618122,173.01714"
       id="text4024" />
    <path
       style="font-size:7.19999981px;font-style:normal;font-weight:normal;fill:#000000;fill-opacity:1;stroke:none;stroke-width:1px;stroke-linecap:butt;stroke-linejoin:miter;stroke-opacity:1;font-family:Bitstream Vera Sans"
       d="M 46.517695,201.21965 C 46.517685,201.672 46.340735,202.04817 45.986835,202.34817 C 45.635265,202.64817 45.192295,202.79817 44.657925,202.79817 C 44.090735,202.79817 43.638395,202.65169 43.300895,202.35872 C 42.965735,202.06575 42.798165,201.69075 42.798165,201.23372 C 42.798165,200.94309 42.882535,200.68059 43.051285,200.44622 C 43.220035,200.2095 43.457925,200.022 43.764955,199.88372 L 43.764955,199.86262 C 43.483705,199.71263 43.275115,199.54856 43.139175,199.37044 C 43.005585,199.19231 42.938785,198.96966 42.938785,198.70247 C 42.938785,198.30872 43.100505,197.9806 43.423945,197.71809 C 43.747375,197.4556 44.158705,197.32435 44.657925,197.32434 C 45.180585,197.32435 45.597765,197.44974 45.909485,197.70051 C 46.221205,197.9513 46.377065,198.27005 46.377065,198.65676 C 46.377065,198.89349 46.303235,199.12669 46.155585,199.35637 C 46.007925,199.58372 45.791125,199.76184 45.505195,199.89075 L 45.505195,199.91184 C 45.833315,200.05247 46.084095,200.22591 46.257535,200.43215 C 46.430965,200.63841 46.517685,200.90091 46.517695,201.21965 M 45.684485,198.66379 C 45.684485,198.41302 45.587225,198.2138 45.392695,198.06614 C 45.200505,197.91614 44.954405,197.84114 44.654415,197.84114 C 44.359095,197.84114 44.116515,197.91146 43.926675,198.05208 C 43.739175,198.19271 43.645425,198.38255 43.645425,198.62161 C 43.645425,198.79036 43.692305,198.93685 43.786055,199.06106 C 43.882145,199.18294 44.026285,199.29192 44.218475,199.38801 C 44.305195,199.4302 44.429405,199.48528 44.591125,199.55325 C 44.755185,199.62122 44.914565,199.67747 45.069255,199.722 C 45.301285,199.56731 45.461825,199.40677 45.550895,199.24036 C 45.639955,199.07395 45.684485,198.88177 45.684485,198.66379 M 45.793475,201.28645 C 45.793475,201.07083 45.745425,200.89856 45.649335,200.76965 C 45.555575,200.63841 45.370425,200.50716 45.093865,200.3759 C 44.983705,200.32434 44.863005,200.2763 44.731755,200.23176 C 44.600505,200.18723 44.425895,200.12513 44.207925,200.04544 C 43.996985,200.16028 43.827065,200.31614 43.698165,200.51301 C 43.571595,200.70989 43.508315,200.93255 43.508315,201.18098 C 43.508315,201.49739 43.617305,201.75872 43.835275,201.96497 C 44.053235,202.17122 44.329795,202.27434 44.664955,202.27434 C 45.007145,202.27434 45.280185,202.18645 45.484095,202.01067 C 45.690345,201.83489 45.793475,201.59348 45.793475,201.28645"
       id="text4028" />
    <path
       style="font-size:7.19999981px;font-style:normal;font-weight:normal;fill:#000000;fill-opacity:1;stroke:none;stroke-width:1px;stroke-linecap:butt;stroke-linejoin:miter;stroke-opacity:1;font-family:Bitstream Vera Sans"
       d="M 46.370072,224.63062 C 46.370072,225.08765 46.317332,225.50249 46.211872,225.87515 C 46.108742,226.24781 45.951712,226.56538 45.740772,226.82788 C 45.527492,227.09507 45.260302,227.30132 44.939212,227.44663 C 44.618112,227.59195 44.240772,227.6646 43.807182,227.6646 C 43.685302,227.6646 43.570462,227.65757 43.462652,227.64351 C 43.354832,227.63179 43.258742,227.61187 43.174372,227.58374 L 43.174372,226.91226 L 43.209522,226.91226 C 43.277492,226.94741 43.373582,226.9814 43.497802,227.01421 C 43.622022,227.04468 43.760302,227.05991 43.912652,227.05991 C 44.430612,227.05991 44.836082,226.90523 45.129052,226.59585 C 45.424362,226.28413 45.595462,225.85523 45.642342,225.30913 C 45.424362,225.44039 45.219292,225.53414 45.027102,225.59038 C 44.834912,225.64663 44.625152,225.67476 44.397802,225.67476 C 44.182182,225.67476 43.986472,225.65367 43.810702,225.61148 C 43.637262,225.56929 43.462652,225.48726 43.286872,225.36538 C 43.080622,225.22242 42.924762,225.04078 42.819292,224.82046 C 42.716162,224.60015 42.664602,224.33648 42.664602,224.02945 C 42.664602,223.49507 42.840382,223.06031 43.191952,222.72515 C 43.543512,222.39 43.972412,222.22242 44.478662,222.22241 C 44.731792,222.22242 44.966162,222.26226 45.181792,222.34195 C 45.397412,222.41929 45.586082,222.53648 45.747802,222.69351 C 45.947022,222.88804 46.100532,223.13883 46.208352,223.44585 C 46.316162,223.75054 46.370072,224.14546 46.370072,224.63062 M 45.659912,224.47945 C 45.659912,224.11617 45.622412,223.82437 45.547412,223.60405 C 45.472412,223.38375 45.369292,223.21265 45.238042,223.09077 C 45.127882,222.98531 45.009522,222.91031 44.882962,222.86577 C 44.756402,222.8189 44.619292,222.79547 44.471632,222.79546 C 44.134132,222.79547 43.866942,222.90093 43.670072,223.11187 C 43.475542,223.32281 43.378272,223.61929 43.378272,224.00132 C 43.378272,224.22398 43.409912,224.40562 43.473202,224.54624 C 43.536472,224.68687 43.643122,224.80992 43.793122,224.91538 C 43.898582,224.98804 44.014602,225.03726 44.141162,225.06304 C 44.267722,225.08648 44.408352,225.0982 44.563042,225.0982 C 44.745852,225.0982 44.931002,225.07359 45.118512,225.02437 C 45.306002,224.97515 45.481792,224.90367 45.645852,224.80991 C 45.648192,224.7607 45.650542,224.71265 45.652882,224.66577 C 45.657572,224.61656 45.659912,224.55445 45.659912,224.47945"
       id="text4032" />
    <path
       style="font-size:7.19999981px;font-style:normal;font-weight:normal;fill:#000000;fill-opacity:1;stroke:none;stroke-width:1px;stroke-linecap:butt;stroke-linejoin:miter;stroke-opacity:1;font-family:Bitstream Vera Sans"
       d="M 154.13354,227.27243 L 151.29995,227.27243 L 151.29995,226.73806 L 152.38979,226.73806 L 152.38979,223.22946 L 151.29995,223.22946 L 151.29995,222.75134 C 151.4476,222.75134 151.6058,222.73962 151.77455,222.71618 C 151.9433,222.6904 152.07104,222.65408 152.15776,222.6072 C 152.26557,222.54861 152.34994,222.47478 152.41088,222.38571 C 152.47416,222.29431 152.51049,222.17244 152.51987,222.02009 L 153.06479,222.02009 L 153.06479,226.73806 L 154.13354,226.73806 L 154.13354,227.27243 M 159.00971,224.65329 C 159.00971,225.59314 158.86205,226.28337 158.56674,226.72399 C 158.27377,227.16227 157.81791,227.38141 157.19916,227.38141 C 156.57104,227.38141 156.11166,227.15876 155.82104,226.71345 C 155.53276,226.26813 155.38862,225.58376 155.38862,224.66032 C 155.38862,223.72986 155.5351,223.04314 155.82807,222.60016 C 156.12104,222.15486 156.57807,221.9322 157.19916,221.9322 C 157.82729,221.9322 158.28549,222.15837 158.57377,222.61071 C 158.86439,223.06072 159.00971,223.74157 159.00971,224.65329 M 158.0851,226.24938 C 158.16713,226.05954 158.22221,225.83688 158.25034,225.58141 C 158.2808,225.3236 158.29604,225.01423 158.29604,224.65329 C 158.29604,224.29704 158.2808,223.98767 158.25034,223.72516 C 158.22221,223.46267 158.16596,223.24001 158.08159,223.0572 C 157.99955,222.87673 157.88705,222.74079 157.74409,222.64938 C 157.60346,222.55798 157.42182,222.51228 157.19916,222.51227 C 156.97885,222.51228 156.79604,222.55798 156.65073,222.64938 C 156.50776,222.74079 156.39408,222.87908 156.30971,223.06423 C 156.23002,223.23767 156.17494,223.46384 156.14448,223.74274 C 156.11635,224.02165 156.10229,224.32751 156.10229,224.66032 C 156.10229,225.02595 156.11518,225.33181 156.14096,225.5779 C 156.16674,225.82399 156.22182,226.04431 156.30619,226.23884 C 156.38354,226.42165 156.49252,226.5611 156.63315,226.6572 C 156.77611,226.75329 156.96479,226.80134 157.19916,226.80134 C 157.41947,226.80134 157.60229,226.75563 157.7476,226.66423 C 157.89291,226.57282 158.00541,226.43454 158.0851,226.24938"
       id="text4036" />
    <path
       style="font-size:7.19999981px;font-style:normal;font-weight:normal;fill:#000000;fill-opacity:1;stroke:none;stroke-width:1px;stroke-linecap:butt;stroke-linejoin:miter;stroke-opacity:1;font-family:Bitstream Vera Sans"
       d="M 154.27941,202.26738 L 151.44582,202.26738 L 151.44582,201.733 L 152.53566,201.733 L 152.53566,198.22441 L 151.44582,198.22441 L 151.44582,197.74628 C 151.59347,197.74629 151.75168,197.73457 151.92043,197.71113 C 152.08918,197.68535 152.21691,197.64902 152.30363,197.60214 C 152.41144,197.54355 152.49582,197.46972 152.55676,197.38066 C 152.62004,197.28926 152.65636,197.16738 152.66574,197.01503 L 153.21066,197.01503 L 153.21066,201.733 L 154.27941,201.733 L 154.27941,202.26738 M 158.86379,202.26738 L 156.03019,202.26738 L 156.03019,201.733 L 157.12004,201.733 L 157.12004,198.22441 L 156.03019,198.22441 L 156.03019,197.74628 C 156.17785,197.74629 156.33605,197.73457 156.5048,197.71113 C 156.67355,197.68535 156.80129,197.64902 156.88801,197.60214 C 156.99582,197.54355 157.08019,197.46972 157.14113,197.38066 C 157.20441,197.28926 157.24074,197.16738 157.25012,197.01503 L 157.79504,197.01503 L 157.79504,201.733 L 158.86379,201.733 L 158.86379,202.26738"
       id="text4040" />
    <path
       style="font-size:7.19999981px;font-style:normal;font-weight:normal;fill:#000000;fill-opacity:1;stroke:none;stroke-width:1px;stroke-linecap:butt;stroke-linejoin:miter;stroke-opacity:1;font-family:Bitstream Vera Sans"
       d="M 154.13,177.29753 L 151.29641,177.29753 L 151.29641,176.76315 L 152.38625,176.76315 L 152.38625,173.25456 L 151.29641,173.25456 L 151.29641,172.77643 C 151.44406,172.77644 151.60226,172.76472 151.77101,172.74128 C 151.93976,172.7155 152.0675,172.67917 152.15422,172.63229 C 152.26203,172.5737 152.3464,172.49988 152.40734,172.41081 C 152.47062,172.31941 152.50695,172.19753 152.51633,172.04518 L 153.06125,172.04518 L 153.06125,176.76315 L 154.13,176.76315 L 154.13,177.29753 M 159.0132,177.29753 L 155.46945,177.29753 L 155.46945,176.56276 C 155.71554,176.35182 155.96164,176.14089 156.20773,175.92995 C 156.45617,175.71901 156.68703,175.50925 156.90031,175.30065 C 157.35031,174.86472 157.65851,174.51901 157.82492,174.26354 C 157.99132,174.00573 158.07453,173.728 158.07453,173.43034 C 158.07453,173.15847 157.98429,172.94636 157.80383,172.79401 C 157.6257,172.63933 157.37609,172.56198 157.055,172.56198 C 156.84172,172.56198 156.61086,172.59948 156.36242,172.67448 C 156.11398,172.74948 155.8714,172.86433 155.63469,173.01901 L 155.59953,173.01901 L 155.59953,172.28073 C 155.76594,172.1987 155.98742,172.1237 156.26398,172.05573 C 156.54289,171.98777 156.81242,171.95378 157.07258,171.95378 C 157.60929,171.95378 158.03,172.08386 158.33469,172.34401 C 158.63937,172.60183 158.79171,172.95222 158.79172,173.39518 C 158.79171,173.59441 158.76593,173.78073 158.71437,173.95417 C 158.66515,174.12526 158.59132,174.28815 158.49289,174.44284 C 158.40148,174.58815 158.29367,174.73112 158.16945,174.87175 C 158.04757,175.01237 157.89875,175.16823 157.72297,175.33932 C 157.47218,175.58542 157.2132,175.82448 156.94601,176.05651 C 156.67882,176.2862 156.42922,176.49948 156.19719,176.69635 L 159.0132,176.69635 L 159.0132,177.29753"
       id="text4044" />
    <path
       style="font-size:7.19999981px;font-style:normal;font-weight:normal;fill:#000000;fill-opacity:1;stroke:none;stroke-width:1px;stroke-linecap:butt;stroke-linejoin:miter;stroke-opacity:1;font-family:Bitstream Vera Sans"
       d="M 154.16692,152.22749 L 151.33333,152.22749 L 151.33333,151.69311 L 152.42317,151.69311 L 152.42317,148.18452 L 151.33333,148.18452 L 151.33333,147.7064 C 151.48099,147.7064 151.63919,147.69468 151.80794,147.67124 C 151.97669,147.64547 152.10442,147.60914 152.19114,147.56226 C 152.29895,147.50367 152.38333,147.42984 152.44427,147.34077 C 152.50755,147.24937 152.54388,147.1275 152.55325,146.97515 L 153.09817,146.97515 L 153.09817,151.69311 L 154.16692,151.69311 L 154.16692,152.22749 M 158.58958,149.70679 C 158.70208,149.80757 158.79466,149.93413 158.86732,150.08647 C 158.93997,150.23882 158.9763,150.43569 158.9763,150.6771 C 158.9763,150.91616 158.93294,151.1353 158.84622,151.33452 C 158.7595,151.53374 158.63762,151.70718 158.4806,151.85483 C 158.30481,152.0189 158.09739,152.14077 157.85833,152.22046 C 157.62161,152.2978 157.36145,152.33647 157.07786,152.33647 C 156.78724,152.33647 156.5013,152.30132 156.22005,152.231 C 155.9388,152.16304 155.70794,152.08804 155.52747,152.006 L 155.52747,151.27124 L 155.58021,151.27124 C 155.77942,151.40249 156.0138,151.51147 156.28333,151.59819 C 156.55286,151.68491 156.81302,151.72827 157.0638,151.72827 C 157.21145,151.72827 157.36848,151.70366 157.53489,151.65444 C 157.7013,151.60522 157.83606,151.53257 157.93919,151.43647 C 158.047,151.33335 158.12669,151.21968 158.17825,151.09546 C 158.23216,150.97124 158.25911,150.81421 158.25911,150.62436 C 158.25911,150.43687 158.22864,150.28218 158.16771,150.1603 C 158.10911,150.03609 158.02708,149.93882 157.92161,149.86851 C 157.81614,149.79585 157.68841,149.74663 157.53841,149.72085 C 157.38841,149.69273 157.22669,149.67867 157.05325,149.67866 L 156.73685,149.67866 L 156.73685,149.09507 L 156.98294,149.09507 C 157.33919,149.09507 157.62278,149.02125 157.83372,148.87358 C 158.047,148.72359 158.15364,148.50562 158.15364,148.21968 C 158.15364,148.09312 158.12669,147.98296 158.07278,147.88921 C 158.01887,147.79312 157.94387,147.71461 157.84778,147.65366 C 157.747,147.59273 157.63919,147.55054 157.52435,147.5271 C 157.4095,147.50367 157.27942,147.49195 157.13411,147.49194 C 156.91145,147.49195 156.67474,147.53179 156.42396,147.61148 C 156.17317,147.69117 155.93646,147.80367 155.7138,147.94898 L 155.67864,147.94898 L 155.67864,147.21421 C 155.84505,147.13218 156.06653,147.05718 156.3431,146.98921 C 156.622,146.9189 156.89153,146.88375 157.15169,146.88374 C 157.40716,146.88375 157.63216,146.90718 157.82669,146.95405 C 158.02122,147.00093 158.197,147.07593 158.35403,147.17905 C 158.52278,147.29156 158.65051,147.4275 158.73724,147.58687 C 158.82395,147.74625 158.86731,147.93257 158.86732,148.14585 C 158.86731,148.43648 158.76419,148.69078 158.55794,148.90874 C 158.35403,149.12437 158.11262,149.26031 157.83372,149.31655 L 157.83372,149.36577 C 157.94622,149.38453 158.07512,149.42437 158.22044,149.4853 C 158.36575,149.5439 158.4888,149.61773 158.58958,149.70679"
       id="text4048" />
    <path
       style="font-size:7.19999981px;font-style:normal;font-weight:normal;fill:#000000;fill-opacity:1;stroke:none;stroke-width:1px;stroke-linecap:butt;stroke-linejoin:miter;stroke-opacity:1;font-family:Bitstream Vera Sans"
       d="M 154.07025,127.22076 L 151.23665,127.22076 L 151.23665,126.68638 L 152.3265,126.68638 L 152.3265,123.17779 L 151.23665,123.17779 L 151.23665,122.69966 C 151.38431,122.69967 151.54251,122.68795 151.71126,122.66451 C 151.88001,122.63873 152.00774,122.6024 152.09446,122.55552 C 152.20227,122.49693 152.28665,122.42311 152.34759,122.33404 C 152.41087,122.24264 152.4472,122.12076 152.45657,121.96841 L 153.0015,121.96841 L 153.0015,126.68638 L 154.07025,126.68638 L 154.07025,127.22076 M 159.07298,125.74771 L 158.29603,125.74771 L 158.29603,127.22076 L 157.62103,127.22076 L 157.62103,125.74771 L 155.11439,125.74771 L 155.11439,124.93912 L 157.64915,121.98599 L 158.29603,121.98599 L 158.29603,125.18521 L 159.07298,125.18521 L 159.07298,125.74771 M 157.62103,125.18521 L 157.62103,122.82271 L 155.59251,125.18521 L 157.62103,125.18521"
       id="text4052" />
    <path
       style="fill:none;fill-opacity:1;stroke:#000000;stroke-width:1;stroke-miterlimit:4;stroke-dashoffset:0;stroke-opacity:1"
       d="M 40,195 L 50,195 L 50,205 L 40,205 L 40,195 z "
       id="path5995" />
    <path
       style="fill:none;fill-opacity:1;stroke:#000000;stroke-width:1;stroke-miterlimit:4;stroke-dashoffset:0;stroke-opacity:1"
       d="M 40,220 L 50,220 L 50,230 L 40,230 L 40,220 z "
       id="path5999" />
    <path
       style="font-size:7.19999981px;font-style:normal;font-weight:normal;fill:#000000;fill-opacity:1;stroke:none;stroke-width:1px;stroke-linecap:butt;stroke-linejoin:miter;stroke-opacity:1;font-family:Bitstream Vera Sans"
       d="M 154.25721,102.49502 L 151.42362,102.49502 L 151.42362,101.96064 L 152.51346,101.96064 L 152.51346,98.452046 L 151.42362,98.452046 L 151.42362,97.973921 C 151.57127,97.973925 151.72948,97.962207 151.89823,97.938765 C 152.06698,97.912988 152.19471,97.87666 152.28143,97.82978 C 152.38924,97.771191 152.47362,97.697363 152.53455,97.608296 C 152.59783,97.516895 152.63416,97.39502 152.64354,97.242671 L 153.18846,97.242671 L 153.18846,101.96064 L 154.25721,101.96064 L 154.25721,102.49502 M 159.09823,100.83212 C 159.09822,101.07588 159.05369,101.30908 158.96463,101.53173 C 158.87557,101.75439 158.75369,101.94189 158.59901,102.09423 C 158.43025,102.2583 158.22869,102.38486 157.99432,102.47392 C 157.76229,102.56064 157.49276,102.604 157.18573,102.604 C 156.89979,102.604 156.6244,102.57353 156.35955,102.51259 C 156.09471,102.454 155.87088,102.38251 155.68807,102.29814 L 155.68807,101.55634 L 155.73729,101.55634 C 155.92948,101.67822 156.15448,101.78251 156.41229,101.86923 C 156.6701,101.95361 156.92322,101.9958 157.17166,101.9958 C 157.33807,101.9958 157.49861,101.97236 157.6533,101.92548 C 157.81033,101.87861 157.94979,101.79658 158.07166,101.67939 C 158.17479,101.57861 158.25213,101.45791 158.3037,101.31728 C 158.3576,101.17666 158.38455,101.01377 158.38455,100.82861 C 158.38455,100.64814 158.35291,100.4958 158.28963,100.37158 C 158.22869,100.24736 158.14315,100.14775 158.03299,100.07275 C 157.91111,99.98369 157.76229,99.92158 157.58651,99.88642 C 157.41307,99.84892 157.21854,99.83017 157.00291,99.83017 C 156.79666,99.83017 156.59744,99.84424 156.40526,99.87236 C 156.21541,99.90049 156.05135,99.92861 155.91307,99.95673 L 155.91307,97.260249 L 159.06307,97.260249 L 159.06307,97.875483 L 156.59159,97.875483 L 156.59159,99.267671 C 156.69237,99.258299 156.79549,99.251268 156.90096,99.246577 C 157.00643,99.241893 157.09783,99.239549 157.17518,99.239546 C 157.45877,99.239549 157.70721,99.264158 157.92049,99.313374 C 158.13377,99.360252 158.32947,99.444627 158.5076,99.5665 C 158.6951,99.69541 158.84041,99.86181 158.94354,100.06572 C 159.04666,100.26963 159.09822,100.52509 159.09823,100.83212"
       id="text6003" />
    <path
       style="font-size:7.19999981px;font-style:normal;font-weight:normal;fill:#000000;fill-opacity:1;stroke:none;stroke-width:1px;stroke-linecap:butt;stroke-linejoin:miter;stroke-opacity:1;font-family:Bitstream Vera Sans"
       d="M 154.10153,77.065121 L 151.26793,77.065121 L 151.26793,76.530746 L 152.35778,76.530746 L 152.35778,73.022152 L 151.26793,73.022152 L 151.26793,72.544027 C 151.41559,72.544032 151.57379,72.532313 151.74254,72.508871 C 151.91129,72.483095 152.03902,72.446766 152.12574,72.399887 C 152.23356,72.341298 152.31793,72.26747 152.37887,72.178402 C 152.44215,72.087001 152.47848,71.965126 152.48785,71.812777 L 153.03278,71.812777 L 153.03278,76.530746 L 154.10153,76.530746 L 154.10153,77.065121 M 159.06207,75.367074 C 159.06207,75.899107 158.88629,76.333872 158.53473,76.671371 C 158.18551,77.006527 157.7566,77.174105 157.24801,77.174105 C 156.9902,77.174105 156.75582,77.134262 156.54489,77.054574 C 156.33395,76.974887 156.14762,76.856528 155.9859,76.699496 C 155.78434,76.504965 155.62848,76.247153 155.51832,75.926059 C 155.41051,75.604966 155.3566,75.218248 155.3566,74.765902 C 155.3566,74.301843 155.40582,73.890515 155.50426,73.531918 C 155.60504,73.173328 155.76442,72.854578 155.98239,72.575668 C 156.18863,72.310829 156.45465,72.104579 156.78043,71.956918 C 157.10621,71.806923 157.4859,71.731923 157.91949,71.731918 C 158.05777,71.731923 158.17379,71.737783 158.26754,71.749496 C 158.36129,71.76122 158.45621,71.782314 158.55231,71.812777 L 158.55231,72.484262 L 158.51715,72.484262 C 158.45152,72.44911 158.35191,72.416298 158.21832,72.385824 C 158.08707,72.353017 157.9523,72.33661 157.81403,72.336606 C 157.31012,72.33661 156.90816,72.494813 156.60817,72.811215 C 156.30816,73.125281 156.13356,73.550672 156.08434,74.087387 C 156.28121,73.967859 156.47457,73.877624 156.66442,73.816684 C 156.8566,73.753406 157.07809,73.721765 157.32887,73.721762 C 157.55152,73.721765 157.74723,73.742859 157.91598,73.785043 C 158.08707,73.82489 158.26168,73.906921 158.43981,74.031137 C 158.64605,74.174108 158.80074,74.354577 158.90387,74.572543 C 159.00933,74.790514 159.06207,75.055357 159.06207,75.367074 M 158.3484,75.395199 C 158.3484,75.177232 158.31558,74.996764 158.24996,74.853793 C 158.18668,74.710827 158.08121,74.586608 157.93356,74.481137 C 157.82574,74.406139 157.70621,74.356921 157.57496,74.33348 C 157.44371,74.310046 157.3066,74.298327 157.16364,74.298324 C 156.96441,74.298327 156.77926,74.321764 156.60817,74.368637 C 156.43707,74.415514 156.26129,74.488171 156.08082,74.586605 C 156.07613,74.63817 156.07262,74.688561 156.07028,74.737777 C 156.06793,74.784655 156.06676,74.84442 156.06676,74.917074 C 156.06676,75.287388 156.10426,75.580357 156.17926,75.79598 C 156.2566,76.009263 156.36207,76.178013 156.49567,76.30223 C 156.60348,76.405356 156.71949,76.481528 156.84371,76.530746 C 156.97027,76.577622 157.10738,76.601059 157.25504,76.601059 C 157.59488,76.601059 157.86207,76.497934 158.0566,76.291684 C 158.25113,76.083091 158.3484,75.784263 158.3484,75.395199"
       id="text6007" />
    <path
       style="fill:none;fill-opacity:0.75;fill-rule:evenodd;stroke:#000000;stroke-width:1px;stroke-linecap:butt;stroke-linejoin:miter;stroke-opacity:1"
       d="M 90,10 L 90,15 C 90,15 90,25 100,25 C 110,25 110,15 110,15 L 110,10 L 90,10"
       id="path6269" />
    <path
       style="fill:none;fill-opacity:1;stroke:#000000;stroke-width:1;stroke-miterlimit:4;stroke-dashoffset:0;stroke-opacity:1"
       d="M 150,20.000002 L 160,20.000002 L 160,30.000002 L 150,30.000002 L 150,20.000002 z "
       id="path13442" />
    <path
       style="fill:none;fill-opacity:1;stroke:#000000;stroke-width:1;stroke-miterlimit:4;stroke-dashoffset:0;stroke-opacity:1"
       d="M 150,45 L 160,45 L 160,55 L 150,55 L 150,45 z "
       id="path13444" />
    <path
       style="font-size:7.20719957px;font-style:normal;font-weight:normal;fill:#000000;fill-opacity:1;stroke:none;stroke-width:1px;stroke-linecap:butt;stroke-linejoin:miter;stroke-opacity:1;font-family:Bitstream Vera Sans"
       d="M 154.13196,52.469501 L 151.29554,52.469501 L 151.29554,51.934592 L 152.38647,51.934592 L 152.38647,48.42249 L 151.29554,48.42249 L 151.29554,47.943887 C 151.44334,47.943891 151.6017,47.932161 151.77062,47.908696 C 151.93954,47.882893 152.0674,47.846529 152.15421,47.799602 C 152.26212,47.740955 152.34658,47.667053 152.40758,47.577896 C 152.47093,47.486404 152.50729,47.364407 152.51668,47.211906 L 153.06214,47.211906 L 153.06214,51.934592 L 154.13196,51.934592 L 154.13196,52.469501 M 159.03413,48.01427 L 156.66223,52.469501 L 155.90913,52.469501 L 158.43235,47.845351 L 155.44812,47.845351 L 155.44812,47.229501 L 159.03413,47.229501 L 159.03413,48.01427"
       id="text13450" />
    <path
       style="font-size:7.20719957px;font-style:normal;font-weight:normal;fill:#000000;fill-opacity:1;stroke:none;stroke-width:1px;stroke-linecap:butt;stroke-linejoin:miter;stroke-opacity:1;font-family:Bitstream Vera Sans"
       d="M 154.18172,27.495029 L 151.34529,27.495029 L 151.34529,26.96012 L 152.43623,26.96012 L 152.43623,23.448018 L 151.34529,23.448018 L 151.34529,22.969415 C 151.4931,22.969419 151.65146,22.957689 151.82038,22.934223 C 151.9893,22.908421 152.11716,22.872057 152.20397,22.82513 C 152.31188,22.766483 152.39634,22.692581 152.45734,22.603424 C 152.52069,22.511932 152.55705,22.389935 152.56644,22.237434 L 153.1119,22.237434 L 153.1119,26.96012 L 154.18172,26.96012 L 154.18172,27.495029 M 159.10852,26.034586 C 159.10851,26.487383 158.93138,26.863931 158.57713,27.16423 C 158.22521,27.46453 157.7818,27.61468 157.24689,27.61468 C 156.67914,27.61468 156.22634,27.468049 155.88851,27.174788 C 155.55301,26.881527 155.38527,26.506152 155.38527,26.048663 C 155.38527,25.757749 155.46973,25.494987 155.63865,25.260375 C 155.80756,25.023422 156.04569,24.835735 156.35303,24.697313 L 156.35303,24.676198 C 156.0715,24.526051 155.8627,24.361825 155.72662,24.183518 C 155.5929,24.005219 155.52603,23.78234 155.52603,23.514882 C 155.52603,23.120742 155.68791,22.79229 156.01168,22.529522 C 156.33543,22.266765 156.74717,22.135384 157.24689,22.135379 C 157.77007,22.135384 158.18767,22.2609 158.49971,22.511927 C 158.81173,22.762963 158.96775,23.082032 158.96775,23.469133 C 158.96775,23.706092 158.89385,23.939528 158.74605,24.169442 C 158.59824,24.397016 158.38123,24.575319 158.09501,24.704351 L 158.09501,24.725466 C 158.42346,24.866234 158.67449,25.039845 158.8481,25.246299 C 159.02171,25.452757 159.10851,25.715519 159.10852,26.034586 M 158.27448,23.476171 C 158.27448,23.225143 158.17712,23.025726 157.98239,22.877917 C 157.79001,22.727772 157.54367,22.652697 157.24337,22.652692 C 156.94776,22.652697 156.70494,22.72308 156.51491,22.863841 C 156.32722,23.004611 156.23338,23.194644 156.23338,23.433941 C 156.23338,23.602864 156.2803,23.749495 156.37415,23.873834 C 156.47034,23.995834 156.61462,24.104928 156.807,24.201114 C 156.8938,24.243347 157.01815,24.29848 157.18003,24.366514 C 157.34425,24.434553 157.50379,24.49086 157.65863,24.535432 C 157.89089,24.380593 158.0516,24.219886 158.14076,24.05331 C 158.2299,23.886741 158.27448,23.694362 158.27448,23.476171 M 158.38358,26.10145 C 158.38357,25.885611 158.33548,25.713173 158.23929,25.584136 C 158.14544,25.452757 157.9601,25.321376 157.68327,25.189992 C 157.573,25.138381 157.45217,25.090286 157.3208,25.045708 C 157.18941,25.001134 157.01463,24.938963 156.79644,24.859193 C 156.58529,24.974154 156.4152,25.130169 156.28617,25.327239 C 156.15948,25.524313 156.09613,25.747191 156.09613,25.995876 C 156.09613,26.312599 156.20523,26.574189 156.42341,26.780644 C 156.6416,26.987101 156.91844,27.090329 157.25393,27.090328 C 157.59646,27.090329 157.86978,27.00235 158.07389,26.826393 C 158.28034,26.650437 158.38357,26.408789 158.38358,26.10145"
       id="text13454" />
  </g>
</svg>
